<svg xmlns="http://www.w3.org/2000/svg" viewBox="0 0 769.3 873.54"><path fill="#9798FF" d="M541.56,273.44a260.94,260.94,0,0,1-1.72,29.89c-.33,2.83-.7,5.66-1.13,8.47A256.19,256.19,0,0,1,525.18,364C488.52,461.6,394.34,531,284,531a257.55,257.55,0,0,1-44.55-3.85,254.89,254.89,0,0,1-34.6-8.55A258.25,258.25,0,0,1,41.69,361.18c-.79-2.17-1.56-4.38-2.28-6.58A253.4,253.4,0,0,1,30.18,318a260.64,260.64,0,0,1-3.83-44.55A257.6,257.6,0,0,1,468.88,94.12c1.07,1.12,2.15,2.23,3.19,3.36a257.52,257.52,0,0,1,55.14,91c.67,1.94,1.33,3.89,2,5.85A257.12,257.12,0,0,1,541.56,273.44Z"/><path fill="#9798FF" d="M716.79,179.16a180.35,180.35,0,0,1-1.19,20.65c-.22,1.95-.48,3.91-.78,5.85a178,178,0,0,1-343.41,34.12,175.87,175.87,0,0,1-7.94-29.84,179.58,179.58,0,0,1-2.65-30.78,178,178,0,1,1,356,0Z"/><path fill="#9798FF" d="M481.31,506.73a242.6,242.6,0,0,1-1.6,27.92q-.46,4-1.06,7.91c-17.29,115.92-117.26,204.83-238,204.83A240.51,240.51,0,0,1,14.33,588.7,238.16,238.16,0,0,1,3.58,548.35,242.84,242.84,0,0,1,0,506.73a240.66,240.66,0,1,1,481.31,0Z"/><path fill="#9798FF" d="M769.3,535.13a281,281,0,0,1-1.85,32.23c-.35,3.06-.75,6.11-1.22,9.14-20,133.8-135.36,236.43-274.73,236.43a278.59,278.59,0,0,1-48-4.15c-98.88-17.23-179.8-86.75-213.22-179a276.08,276.08,0,0,1-12.41-46.57,280.79,280.79,0,0,1-4.13-48,277.8,277.8,0,1,1,555.6,0Z"/><path fill="#fff" d="M68.75,234.06A4,4,0,0,1,70.46,231a3.39,3.39,0,0,1,3.11-.15h0a2.66,2.66,0,0,1,1-2.48,2,2,0,0,1,1.78-.09,5.11,5.11,0,0,1,2.08-2.69c3-1.88,7.5.39,10,5.07l.16.32c1.75-.56,4,.69,5.42,3.08l.19.34a8.41,8.41,0,0,1,.68,1.66H68.79A7.5,7.5,0,0,1,68.75,234.06Z"/><path fill="#fff" d="M686.93,229.27a7.2,7.2,0,0,0-3-5.47,6.06,6.06,0,0,0-5.56-.26h0c.11-1.95-.51-3.64-1.8-4.45a3.51,3.51,0,0,0-3.18-.16,9.23,9.23,0,0,0-3.71-4.81c-5.4-3.35-13.42.71-17.9,9.07-.11.18-.2.37-.3.56-3.12-1-7.15,1.25-9.68,5.52-.12.19-.23.39-.34.6a15.42,15.42,0,0,0-1.23,3h46.69A13.44,13.44,0,0,0,686.93,229.27Z"/><path fill="#fff" d="M698.25,134.26c-.91-7.63-4.19-14-9.67-17.38-5.17-3.21-11.43-3.28-17.67-.83h0c.33-6.17-1.62-11.55-5.73-14.1-3-1.84-6.54-1.91-10.1-.54-2.41-6.56-6.35-11.88-11.78-15.26C626.15,75.52,600.7,88.41,586.46,115c-.32.59-.63,1.2-.92,1.8-9.92-3.18-22.73,4-30.76,17.51-.37.62-.72,1.25-1.07,1.9a49.43,49.43,0,0,0-3.9,9.44H698A41.75,41.75,0,0,0,698.25,134.26Z"/><path fill="#fff" d="M572.62,316.51c-.53-4.44-2.44-8.13-5.63-10.11-3-1.87-6.66-1.92-10.29-.49h0c.19-3.6-1-6.73-3.34-8.21a6.5,6.5,0,0,0-5.88-.32,17.08,17.08,0,0,0-6.86-8.88c-10-6.2-24.79,1.31-33.08,16.76-.18.34-.36.7-.53,1.05-5.78-1.86-13.23,2.3-17.91,10.19-.22.36-.42.73-.62,1.11a28.58,28.58,0,0,0-2.27,5.49h86.28A24.5,24.5,0,0,0,572.62,316.51Z"/><path fill="#fff" d="M174,173.48c-.39-6.16-3.08-11.33-7.94-14-6.13-3.36-14.19-1.89-21.22,3.08-.49-9.13-4.41-16.84-11.59-20.77-12.83-7-31.47.48-43.13,16.81a9,9,0,0,0-2.37-1.86c-6.21-3.4-15.44.72-20.6,9.2a23.81,23.81,0,0,0-1.63,3.17h0a17.92,17.92,0,0,0-9.23,4.36,24,24,0,0,0-4.63,5.28H173.82A25.52,25.52,0,0,0,174,173.48Z"/><path fill="#fff" d="M55.59,342.06c.27-4.23,2.12-7.79,5.46-9.62,4.21-2.31,9.75-1.3,14.58,2.12.33-6.28,3-11.57,8-14.27,8.81-4.83,21.62.33,29.64,11.55a6.2,6.2,0,0,1,1.63-1.28c4.27-2.34,10.61.5,14.16,6.33a16,16,0,0,1,1.12,2.17h0a12.3,12.3,0,0,1,6.35,3,17,17,0,0,1,3.18,3.63h-84A17.18,17.18,0,0,1,55.59,342.06Z"/><path fill="#421a29" d="M41.62,550.39a1.86,1.86,0,0,1-.72-.15,1.81,1.81,0,0,1-.94-2.37c3-6.93,5.22-10.86,5.32-11a1.81,1.81,0,0,1,3.14,1.79s-2.23,4-5.14,10.67A1.81,1.81,0,0,1,41.62,550.39Z"/><path fill="#421a29" d="M369.29,797.9h-.06a123,123,0,0,1-24.87-3.38,1.81,1.81,0,0,1,.85-3.51,119.42,119.42,0,0,0,24.14,3.28,1.81,1.81,0,0,1-.06,3.61ZM394,796.33a1.81,1.81,0,0,1-.28-3.59,139.3,139.3,0,0,0,23.69-6,1.81,1.81,0,1,1,1.18,3.42,142.45,142.45,0,0,1-24.3,6.11A1.42,1.42,0,0,1,394,796.33Zm-72.48-10a1.91,1.91,0,0,1-.77-.17,133.68,133.68,0,0,1-21.5-12.9,1.81,1.81,0,1,1,2.14-2.91,128.65,128.65,0,0,0,20.91,12.54,1.81,1.81,0,0,1-.78,3.44ZM196.76,764.55a1.81,1.81,0,0,1-.12-3.61c8.44-.57,16.71-1.4,24.55-2.44a1.81,1.81,0,1,1,.48,3.58c-7.92,1-16.26,1.89-24.78,2.47Zm-24.75,0h-.13a173,173,0,0,1-24.74-3.66,1.81,1.81,0,1,1,.79-3.53,167,167,0,0,0,24.22,3.58,1.81,1.81,0,0,1-.14,3.61Zm73.84-6.65a1.81,1.81,0,0,1-.38-3.58,219.64,219.64,0,0,0,23.7-6.47,1.81,1.81,0,1,1,1.16,3.42,226.42,226.42,0,0,1-24.1,6.59A2.33,2.33,0,0,1,245.85,757.87Zm35.85-.61a1.79,1.79,0,0,1-1.33-.58,101.68,101.68,0,0,1-14.79-20.33,1.81,1.81,0,1,1,3.16-1.75A98.53,98.53,0,0,0,283,754.22a1.8,1.8,0,0,1-.09,2.55A1.78,1.78,0,0,1,281.7,757.26Zm-157.85-3.53a1.82,1.82,0,0,1-.65-.12,168.15,168.15,0,0,1-22.6-10.73,1.81,1.81,0,1,1,1.79-3.14,162.65,162.65,0,0,0,22.11,10.49,1.81,1.81,0,0,1-.65,3.5Zm168.67-12.11a1.81,1.81,0,0,1-.86-3.4,94.24,94.24,0,0,0,19.84-13.9A1.81,1.81,0,1,1,314,727a98,98,0,0,1-20.6,14.45A1.75,1.75,0,0,1,292.52,741.62ZM81,729.25a1.76,1.76,0,0,1-1.12-.39A162.45,162.45,0,0,1,63,713.35c-.48-.5-1-1-1.42-1.52a1.81,1.81,0,0,1,2.66-2.45c.45.5.92,1,1.38,1.49A159.49,159.49,0,0,0,82.12,726,1.81,1.81,0,0,1,81,729.25Zm177.22-15a1.81,1.81,0,0,1-1.76-1.39,83,83,0,0,1-2.3-19.18c0-2,.08-4,.24-6a1.81,1.81,0,1,1,3.6.29c-.15,1.86-.23,3.77-.23,5.68A79,79,0,0,0,260,712a1.81,1.81,0,0,1-1.34,2.18A2,2,0,0,1,258.21,714.27Zm69.24-6.52a1.85,1.85,0,0,1-.78-.18,1.8,1.8,0,0,1-.84-2.41,61,61,0,0,0,5.53-19.48c.13-1.22.23-2.44.27-3.62a1.81,1.81,0,1,1,3.61.13c0,1.27-.14,2.58-.29,3.89a64.39,64.39,0,0,1-5.86,20.65A1.83,1.83,0,0,1,327.45,707.75ZM47.68,692.89a1.78,1.78,0,0,1-1.52-.83,133.55,133.55,0,0,1-11.57-22.24,1.81,1.81,0,1,1,3.35-1.36A130.1,130.1,0,0,0,49.19,690.1a1.81,1.81,0,0,1-.54,2.5A1.83,1.83,0,0,1,47.68,692.89ZM263,666.07a1.79,1.79,0,0,1-.89-.23,1.81,1.81,0,0,1-.68-2.47,41.55,41.55,0,0,1,7.77-10,33.68,33.68,0,0,1,11.32-6.86,1.81,1.81,0,0,1,1.27,3.39A29.86,29.86,0,0,0,271.69,656a38,38,0,0,0-7.09,9.13A1.82,1.82,0,0,1,263,666.07Zm63.46-5.34a1.79,1.79,0,0,1-1.41-.68c-4.67-5.87-11.54-9.91-19.88-11.7a1.81,1.81,0,0,1,.76-3.53c9.17,2,16.76,6.45,21.95,13a1.8,1.8,0,0,1-1.42,2.93ZM29.24,647.24a1.82,1.82,0,0,1-1.78-1.46,142.81,142.81,0,0,1-2.59-24.92,1.81,1.81,0,0,1,3.61-.07A138.4,138.4,0,0,0,31,645.08a1.81,1.81,0,0,1-1.42,2.12A1.45,1.45,0,0,1,29.24,647.24Zm-1-49.31H28a1.81,1.81,0,0,1-1.54-2,183.86,183.86,0,0,1,5.17-24.46,1.82,1.82,0,0,1,2.24-1.25,1.8,1.8,0,0,1,1.24,2.23,180.16,180.16,0,0,0-5.07,24A1.81,1.81,0,0,1,28.22,597.93Z"/><path fill="#421a29" d="M440.73,780.1a1.81,1.81,0,0,1-.88-3.38c3.54-2,6.92-4.11,10-6.3a1.81,1.81,0,1,1,2.07,3c-3.22,2.26-6.71,4.44-10.35,6.49A1.79,1.79,0,0,1,440.73,780.1Z"/><path fill="#0096be" d="M49.12,526.74,71,498.93s-16.56.3-16.85.67l-9.46,12.28Z"/><polygon fill="#fff" points="22.98 492.81 72.16 544.01 110.14 434.46 22.98 492.81"/><path fill="#421a29" d="M72.16,546a2,2,0,0,1-1.43-.61l-49.18-51.2A2,2,0,0,1,21,492.6a2,2,0,0,1,.88-1.44L109,432.81a2,2,0,0,1,3,2.31L74,544.66A2,2,0,0,1,72.59,546,2.18,2.18,0,0,1,72.16,546Zm-46.1-52.85,45.28,47.14,35-100.87Z"/><polygon fill="#d2c8e4" points="106.56 439.2 37.17 507.59 49.12 526.74 47.05 517.87 106.56 439.2"/><path fill="#421a29" d="M49.12,529.11a2.36,2.36,0,0,1-2-1.12L35.17,508.84a2.36,2.36,0,0,1,.34-2.94l69.39-68.39a2.37,2.37,0,0,1,3.55,3.11L49.6,518.41l1.83,7.79a2.36,2.36,0,0,1-1.4,2.72A2.22,2.22,0,0,1,49.12,529.11Zm-8.94-21.17,5.16,8.28,39.72-52.51Z"/><path fill="#421a29" d="M740,427.47a1.82,1.82,0,0,1-1.81-1.74c-.25-7.27-.81-11.81-.82-11.85a1.81,1.81,0,0,1,3.59-.46c0,.19.59,4.74.84,12.18a1.8,1.8,0,0,1-1.74,1.87Z"/><path fill="#421a29" d="M651.82,550.19a1.81,1.81,0,0,1-.07-3.61c1.46-.07,3-.16,4.48-.27a102.08,102.08,0,0,0,16.26-2.58,1.81,1.81,0,0,1,.86,3.51,104.47,104.47,0,0,1-16.84,2.67c-1.55.12-3.1.21-4.61.28Zm40.94-10.54a1.79,1.79,0,0,1-1.58-.94,1.81,1.81,0,0,1,.71-2.45,73.48,73.48,0,0,0,16.6-12.44,1.8,1.8,0,0,1,2.55,2.55,77,77,0,0,1-17.41,13.06A1.81,1.81,0,0,1,692.76,539.65Zm30-29.63a1.76,1.76,0,0,1-.91-.25,1.81,1.81,0,0,1-.64-2.48,107.44,107.44,0,0,0,8.71-19.05,1.8,1.8,0,1,1,3.41,1.18,110,110,0,0,1-9,19.71A1.81,1.81,0,0,1,722.72,510ZM737,470a1.27,1.27,0,0,1-.34,0,1.79,1.79,0,0,1-1.44-2.1,182.81,182.81,0,0,0,2.64-21,1.8,1.8,0,0,1,3.6.25,185.52,185.52,0,0,1-2.69,21.4A1.81,1.81,0,0,1,737,470Z"/><path fill="#421a29" d="M630.47,549a1.63,1.63,0,0,1-.31,0,78.8,78.8,0,0,1-11.95-3,1.81,1.81,0,1,1,1.17-3.43,74.11,74.11,0,0,0,11.39,2.87,1.81,1.81,0,0,1-.3,3.59Z"/><path fill="#0096be" d="M731.53,401.51,716,373.38s14.81,2.68,15,3.05l6.7,12.38Z"/><polygon fill="#fff" points="759.91 374.87 708.36 413.65 690.19 309.87 759.91 374.87"/><path fill="#421a29" d="M708.36,415.46a1.74,1.74,0,0,1-.67-.13,1.81,1.81,0,0,1-1.11-1.37L688.41,310.18a1.8,1.8,0,0,1,3-1.63l69.72,65a1.8,1.8,0,0,1-.15,2.76L709.44,415.1A1.84,1.84,0,0,1,708.36,415.46ZM692.9,314.86l16.73,95.57,47.47-35.71Z"/><polygon fill="#d2c8e4" points="692.72 314.63 745.03 386.06 731.53 401.51 734.68 393.85 692.72 314.63"/><path fill="#421a29" d="M731.53,403.87a2.4,2.4,0,0,1-1.24-.35,2.36,2.36,0,0,1-.95-2.91l2.73-6.63-41.44-78.24a2.36,2.36,0,0,1,4-2.5l52.32,71.42a2.36,2.36,0,0,1-.13,2.95l-13.5,15.45A2.36,2.36,0,0,1,731.53,403.87ZM710,342.27l26.46,50,5.52-6.3Z"/><rect width="521.4" height="639.09" x="140.27" y="23.4" fill="#fff" transform="rotate(180 400.965 342.95)"/><path fill="#421a29" d="M661.66,664.35H140.27a1.85,1.85,0,0,1-1.86-1.85V23.4a1.86,1.86,0,0,1,1.86-1.86H661.66a1.86,1.86,0,0,1,1.86,1.86V662.5A1.85,1.85,0,0,1,661.66,664.35Zm-519.53-3.71H659.81V25.26H142.13Z"/><rect width="205.31" height="14.4" x="400.97" y="140.81" fill="#cdd9f0" rx="7.2" transform="rotate(180 503.625 148.01)"/><path fill="#421a29" d="M599.08,157.07H408.17a9.06,9.06,0,1,1,0-18.12H599.08a9.06,9.06,0,0,1,0,18.12Zm-190.91-14.4a5.34,5.34,0,1,0,0,10.68H599.08a5.34,5.34,0,0,0,0-10.68Z"/><path fill="#cdd9f0" d="M408.17,242.18H599.08a7.2,7.2,0,0,0,7.2-7.2h0a7.2,7.2,0,0,0-7.2-7.2H408.17A7.2,7.2,0,0,0,401,235h0A7.2,7.2,0,0,0,408.17,242.18Z"/><path fill="#421a29" d="M599.08,244H408.17a9.06,9.06,0,1,1,0-18.11H599.08a9.06,9.06,0,1,1,0,18.11Zm-190.91-14.4a5.35,5.35,0,1,0,0,10.69H599.08a5.35,5.35,0,0,0,0-10.69Z"/><path fill="#cdd9f0" d="M545.24,198.69h53.84a7.2,7.2,0,0,0,7.2-7.2h0a7.2,7.2,0,0,0-7.2-7.2H545.24a7.21,7.21,0,0,0-7.2,7.2h0A7.2,7.2,0,0,0,545.24,198.69Z"/><path fill="#421a29" d="M599.08,200.55H545.24a9.06,9.06,0,0,1,0-18.12h53.84a9.06,9.06,0,0,1,0,18.12Zm-53.84-14.4a5.34,5.34,0,0,0,0,10.68h53.84a5.34,5.34,0,0,0,0-10.68Z"/><path fill="#cdd9f0" d="M408.17,198.69H507.7a7.2,7.2,0,0,0,7.2-7.2h0a7.21,7.21,0,0,0-7.2-7.2H408.17a7.2,7.2,0,0,0-7.2,7.2h0A7.2,7.2,0,0,0,408.17,198.69Z"/><path fill="#421a29" d="M507.7,200.55H408.17a9.06,9.06,0,1,1,0-18.12H507.7a9.06,9.06,0,0,1,0,18.12Zm-99.53-14.4a5.34,5.34,0,1,0,0,10.68H507.7a5.34,5.34,0,0,0,0-10.68Z"/><rect width="410.63" height="128.27" x="195.65" y="314.85" fill="#fff"/><path fill="#421a29" d="M606.28,445H195.65a1.86,1.86,0,0,1-1.86-1.86V314.85a1.87,1.87,0,0,1,1.86-1.86H606.28a1.86,1.86,0,0,1,1.86,1.86V443.12A1.86,1.86,0,0,1,606.28,445Zm-408.77-3.71H604.42V316.71H197.51Z"/><rect width="410.63" height="128.27" x="195.65" y="472.29" fill="#fff"/><path fill="#421a29" d="M606.28,602.42H195.65a1.86,1.86,0,0,1-1.86-1.85V472.29a1.87,1.87,0,0,1,1.86-1.86H606.28a1.86,1.86,0,0,1,1.86,1.86V600.57A1.85,1.85,0,0,1,606.28,602.42Zm-408.77-3.71H604.42V474.15H197.51Z"/><circle cx="568.72" cy="378.99" r="15.88" fill="#cdd9f0" transform="rotate(-67.5 568.724 378.992)"/><path fill="#421a29" d="M568.72,396.72A17.74,17.74,0,1,1,586.46,379,17.75,17.75,0,0,1,568.72,396.72Zm0-31.75a14,14,0,1,0,14,14A14,14,0,0,0,568.72,365Z"/><path fill="#cdd9f0" d="M223.6,366.87H516.5a6.27,6.27,0,0,0,6.27-6.26h0a6.27,6.27,0,0,0-6.27-6.27H223.6a6.27,6.27,0,0,0-6.27,6.27h0A6.27,6.27,0,0,0,223.6,366.87Z"/><path fill="#421a29" d="M516.5,368.73H223.6a8.13,8.13,0,1,1,0-16.25H516.5a8.13,8.13,0,1,1,0,16.25ZM223.6,356.2a4.41,4.41,0,1,0,0,8.81H516.5a4.41,4.41,0,1,0,0-8.81Z"/><rect width="101.51" height="12.53" x="421.26" y="391.1" fill="#cdd9f0" rx="6.27" transform="rotate(-180 472.01 397.37)"/><path fill="#421a29" d="M516.5,405.5h-89a8.13,8.13,0,0,1,0-16.25h89a8.13,8.13,0,1,1,0,16.25Zm-89-12.54a4.41,4.41,0,0,0,0,8.82h89a4.41,4.41,0,0,0,0-8.82Z"/><rect width="169.49" height="12.53" x="217.33" y="391.1" fill="#cdd9f0" rx="6.27" transform="rotate(-180 302.075 397.37)"/><path fill="#421a29" d="M380.55,405.5h-157a8.13,8.13,0,1,1,0-16.25h157a8.13,8.13,0,1,1,0,16.25ZM223.6,393a4.41,4.41,0,0,0,0,8.82h157a4.41,4.41,0,0,0,0-8.82Z"/><circle cx="568.72" cy="536.43" r="15.88" fill="#cdd9f0"/><path fill="#421a29" d="M568.72,554.16a17.74,17.74,0,1,1,17.74-17.73A17.75,17.75,0,0,1,568.72,554.16Zm0-31.75a14,14,0,1,0,14,14A14,14,0,0,0,568.72,522.41Z"/><path fill="#cdd9f0" d="M251,548.54H516.5a6.27,6.27,0,0,1,6.27,6.27h0a6.27,6.27,0,0,1-6.27,6.27H251a6.27,6.27,0,0,1-6.26-6.27h0A6.27,6.27,0,0,1,251,548.54Z"/><path fill="#421a29" d="M251,562.94a8.13,8.13,0,0,1,0-16.25H516.5a8.13,8.13,0,0,1,0,16.25Zm0-12.54a4.41,4.41,0,1,0,0,8.82H516.5a4.41,4.41,0,1,0,0-8.82Z"/><path fill="#cdd9f0" d="M404.73,511.78h61a6.27,6.27,0,0,1,6.27,6.27h0a6.26,6.26,0,0,1-6.27,6.26h-61a6.27,6.27,0,0,1-6.27-6.26h0A6.27,6.27,0,0,1,404.73,511.78Z"/><path fill="#421a29" d="M465.74,526h-61a7.95,7.95,0,0,1,0-15.89h61a7.95,7.95,0,1,1,0,15.89Zm-61-12.53a4.59,4.59,0,1,0,0,9.18h61a4.59,4.59,0,1,0,0-9.18Z"/><path fill="#cdd9f0" d="M257,511.78H367.25a6.27,6.27,0,0,1,6.26,6.27h0a6.26,6.26,0,0,1-6.26,6.26H257a6.27,6.27,0,0,1-6.27-6.26h0A6.27,6.27,0,0,1,257,511.78Z"/><path fill="#421a29" d="M257,526a7.95,7.95,0,0,1,0-15.89H367.25a7.95,7.95,0,0,1,0,15.89Zm0-12.53a4.59,4.59,0,0,0,0,9.18H367.25a4.59,4.59,0,0,0,0-9.18Z"/><path fill="#cdd9f0" d="M670.49,39.1V147.26a27.4,27.4,0,0,1-28.44,27.36c-14.8-.55-26.33-13.21-26.33-28V78c0-9,6.68-16.91,15.67-17.77a17.36,17.36,0,0,1,19,17.28V113a5.28,5.28,0,1,1-10.55,0V77.77a7,7,0,0,0-6.1-7.06,6.81,6.81,0,0,0-7.47,6.77v69.28c0,8.76,6.5,16.43,15.22,17.25A16.85,16.85,0,0,0,660,147.26V39.82c0-14.95-12.23-27.66-27.14-27.4a26.62,26.62,0,0,0-21,10.82H599.87c6.18-12.71,19.13-21.64,34-21.38A37.27,37.27,0,0,1,670.49,39.1Z"/><path fill="#421a29" d="M643.12,176.5c-.38,0-.76,0-1.14,0-15.5-.58-28.12-14-28.12-29.88V78c0-10.07,7.63-18.69,17.36-19.62A19,19,0,0,1,646,63.28a19.24,19.24,0,0,1,6.28,14.2V113a7.15,7.15,0,0,1-7.13,7.15,7.05,7.05,0,0,1-5-2.09A7.13,7.13,0,0,1,638,113V77.77a5.15,5.15,0,0,0-4.43-5.22,5,5,0,0,0-5.42,4.93v69.28c0,7.92,6,14.68,13.54,15.4a15,15,0,0,0,16.42-14.9V39.82a26,26,0,0,0-7.77-18.42,24.21,24.21,0,0,0-17.48-7.13,24.65,24.65,0,0,0-19.53,10.07,1.88,1.88,0,0,1-1.5.75H599.87a1.86,1.86,0,0,1-1.67-2.67C605,8.54,619-.26,633.92,0A39.27,39.27,0,0,1,672.35,39.1V147.26a29.26,29.26,0,0,1-29.23,29.24ZM633.06,62c-.49,0-1,0-1.49.07-7.84.75-14,7.74-14,15.92V146.6c0,13.92,11,25.66,24.54,26.17a25.56,25.56,0,0,0,26.51-25.51V39.1A35.16,35.16,0,0,0,603,21.38h7.92a28.3,28.3,0,0,1,21.88-10.82,27.91,27.91,0,0,1,20.15,8.19,29.77,29.77,0,0,1,8.88,21.07V147.26a18.7,18.7,0,0,1-20.49,18.6c-9.48-.89-16.9-9.28-16.9-19.1V77.48a8.67,8.67,0,0,1,9.49-8.62,8.9,8.9,0,0,1,7.79,8.91V113a3.47,3.47,0,0,0,1,2.44,3.38,3.38,0,0,0,2.42,1,3.43,3.43,0,0,0,3.42-3.43V77.48A15.55,15.55,0,0,0,643.47,66,15.34,15.34,0,0,0,633.06,62Z"/><circle cx="233.05" cy="166.71" r="121.2" fill="#fff" transform="rotate(-45 233.052 166.707)"/><path fill="#421a29" d="M233.05,289.74a123,123,0,1,1,123-123A123.18,123.18,0,0,1,233.05,289.74Zm0-242.4A119.37,119.37,0,1,0,352.41,166.71,119.51,119.51,0,0,0,233.05,47.34Z"/><path fill="#a46950" d="M330.42,833.56l-8.33,24.32-54.73-58.4-2-44.53s50.42-25.72,50.42-9.81c0,0-4,29.13-3.85,32a141.26,141.26,0,0,0,3.43,24.74C318.09,813.43,322.67,826.28,330.42,833.56Z"/><path fill="#421a29" d="M322.09,859.69a1.82,1.82,0,0,1-1.32-.57L266,800.72a1.87,1.87,0,0,1-.49-1.16l-2-44.53a1.79,1.79,0,0,1,1-1.69c4.06-2.07,40-20.06,50.08-13.86a6.23,6.23,0,0,1,3,5.66,1.94,1.94,0,0,1,0,.24c-1.54,11.2-3.95,29.69-3.84,31.62a139.91,139.91,0,0,0,3.39,24.43c3.34,14.38,8.35,25,14.49,30.81a1.82,1.82,0,0,1,.48,1.91l-8.33,24.32a1.8,1.8,0,0,1-1.34,1.18A1.58,1.58,0,0,1,322.09,859.69Zm-52.95-61,52.21,55.71,7-20.37c-6.35-6.46-11.29-17.15-14.7-31.81a145,145,0,0,1-3.48-25c-.16-2.88,3.36-28.61,3.85-32.18a2.57,2.57,0,0,0-1.23-2.44c-6.18-3.78-30.72,6-45.5,13.46Z"/><path fill="#421a29" d="M265.85,779.48c1.39-3.27,2.34-5.32,2.34-5.32s10.69,6.38,18.08,14.88,10.79,30.73,16.05,37.42,25,6.27,30.61,6.39c2.12,0,7,6.35,13.89,13.52,6.09,6.33,14.1,13.21,18.3,18.79a7.82,7.82,0,0,1,1.05,4.61,5.1,5.1,0,0,1-2.38,3.77H317.28c-1.24,0-2,0-2.12,0-1.08,0-9.74-12.13-18.4-22-3.67-4.17-10.59-8.3-17.69-12.57l-.72-.43-.09.65-.32,34.33h-9.86L259,826l-.23-2.23a14.75,14.75,0,0,1-2-3.55C253.36,811.15,261.61,789.54,265.85,779.48Z"/><path fill="#a46950" d="M161.21,780.18c-1.31,10.27-4.89,24.87-6.27,36.74-1.14,9.86-2.16,18.9-2.74,24.77-.08.88-.17,1.68-.23,2.41,0,0,0,.09,0,.15-2.26,4.36-6.95,7.13-13.48,6.73,0,0-38.11-16.56-37.05-19.12.58-1.51,5.49-20.2,8.29-26.29a0,0,0,0,1,0,0c5.73-12.51,10.89-30,12-33.06.22-.69.75-2.15.75-2.15.13-.31.26-.66.41-1C122.88,769.31,162.21,772.44,161.21,780.18Z"/><path fill="#421a29" d="M139.71,852.85c-.44,0-.88,0-1.33,0a1.61,1.61,0,0,1-.62-.15c-.1,0-9.66-4.2-19-8.62-5.49-2.61-9.83-4.8-12.89-6.51-4.93-2.76-7-4.33-6.14-6.37.11-.3.66-2.25,1.25-4.31,1.85-6.5,4.94-17.36,7-22a.61.61,0,0,1,0-.12h0c4.49-9.79,8.7-22.93,10.72-29.24.56-1.75,1-3,1.2-3.68s.76-2.15.76-2.15l.09-.23c.11-.28.23-.58.36-.89a1.84,1.84,0,0,1,1.83-1.1c3.41.27,33.5,2.85,38.95,9.56a4.36,4.36,0,0,1,1.05,3.38h0c-.61,4.79-1.69,10.44-2.84,16.41-1.32,6.87-2.69,14-3.43,20.3-1.33,11.47-2.22,19.57-2.73,24.74l-.09.87c-.05.51-.1,1-.14,1.44v.1a1.76,1.76,0,0,1-.2.81C151,850.07,146,852.85,139.71,852.85Zm-.79-3.68c5.1.22,9.17-1.75,11.24-5.44,0-.42.08-.87.13-1.35l.08-.86c.52-5.2,1.41-13.32,2.75-24.82.75-6.45,2.13-13.62,3.46-20.56,1.14-5.92,2.22-11.51,2.81-16.19h0c0-.06,0-.24-.26-.59-3.24-4-22.64-7-35-8.11-.16.43-.47,1.31-.63,1.8-.23.65-.65,2-1.18,3.6-2,6.36-6.26,19.56-10.82,29.55l-.06.14c-2,4.29-5.16,15.49-6.87,21.51-.53,1.87-.87,3.07-1.1,3.81C106.44,834.27,123.31,842.37,138.92,849.17Zm11.25-4.71Zm0,0h0Zm-47-12a.3.3,0,0,1,0,.1A.42.42,0,0,0,103.19,832.42Z"/><path fill="#421a29" d="M101.66,814.89l.72-1.51c3.76-9.39,17.22-42.61,20.5-43.54l-11.73,38a18,18,0,0,0,6,19.59l.15.12a34.79,34.79,0,0,0,11,5.24l-.11-.05.35.05a21.8,21.8,0,0,0,24.28-16.7l8.45-36c1.85,7.35-1.38,31.88-5.2,52.44a74.61,74.61,0,0,1-3.83,17.92l-4,11.55c-2.2,8.1-10.06,13-17.55,11l-.77-.16A41.24,41.24,0,0,1,101.66,814.89Z"/><path fill="#cdd9f0" d="M85.73,783.15h0a201.25,201.25,0,0,0,92.92,1.94l9-1.94,46.12-306.41,4-1.47,1.09,309.55,2.42.42a272.69,272.69,0,0,0,95.94-.42h0C335.74,752,324.87,463.34,314,417.1c-10.69-45.61-19.52-60.78-19.52-60.78H194.62l-31.5,19.45C124,409.52,98.05,733.3,85.73,783.15Z"/><path fill="#421a29" d="M136.32,791.41a203.85,203.85,0,0,1-51-6.48A1.84,1.84,0,0,1,84,782.71c3.6-14.57,8.35-52.58,14.37-100.69,15-119.58,35.45-283.36,63.6-307.64a1.31,1.31,0,0,1,.24-.17l31.49-19.45a1.82,1.82,0,0,1,1-.27H294.5a1.82,1.82,0,0,1,1.58.91c.37.63,9.09,15.93,19.73,61.29,9.73,41.49,19.31,273.34,22.46,349.52.36,8.67.62,15,.78,18.53a1.83,1.83,0,0,1-1.5,1.88,273.7,273.7,0,0,1-96.58.43l-2.43-.42a1.86,1.86,0,0,1-1.52-1.81l-1.08-306.93-.52.19-46,305.34a1.82,1.82,0,0,1-1.43,1.52l-9,1.94A202.9,202.9,0,0,1,136.32,791.41Zm-48.39-9.59a200.55,200.55,0,0,0,90.33,1.48l7.76-1.68L232,476.46a1.85,1.85,0,0,1,1.19-1.45l4-1.47a1.86,1.86,0,0,1,1.68.22,1.82,1.82,0,0,1,.78,1.5l1.09,308,.91.16a270.1,270.1,0,0,0,93.71-.13c-.16-3.68-.4-9.45-.7-16.93-3.15-76.1-12.72-307.69-22.37-348.85-9.08-38.7-16.87-55.48-18.85-59.37H195.14l-30.93,19.1C137.18,401,116,570.35,102,682.48,96.16,728.89,91.52,765.92,87.93,781.82Z"/><path fill="#421a29" d="M294.44,190.65s20.65-10.56,7.44-35-16.67-36.15-17.56-56.91S278.86,63.51,259.58,62c-8.3-.63-14.79,1.37-20.12,1.76a69.51,69.51,0,0,1-8.73.18,27.47,27.47,0,0,1-2.82-.28c-7.08-1.07-24.38,4.16-27.32,16.68,0,0-16.53,13.24-16.26,25.41s8.26,27.49,1.82,34.73-4.34,9.6-19.61,14.62c-12.23,4-12.68,32.08,5.07,42.15C189.74,207.58,294.44,190.65,294.44,190.65Z"/><path fill="#421a29" d="M195.78,128.49A59.94,59.94,0,0,0,243.49,155l2.92.12a37.78,37.78,0,0,0,38.71-44.55s-8.05-27.53-16-34.4c-7.66-6.61-19-10.34-32.11-9.76a69.57,69.57,0,0,1-8.67,1,14.81,14.81,0,0,0-4.21,1.74,15.34,15.34,0,0,0-4.24,3.8,5.4,5.4,0,0,1-4.05,2.16c-10.88.41-24.5,19.62-25.33,39C190.29,118.49,192.49,123.52,195.78,128.49Z"/><polygon fill="#a46950" points="213.23 189.58 226.01 135.87 264.69 160.54 257.44 191 266.6 229.84 213.1 252.78 213.23 189.58"/><path fill="#421a29" d="M213.1,254.62a1.87,1.87,0,0,1-1-.31,1.84,1.84,0,0,1-.82-1.53l.12-63.21a3,3,0,0,1,.05-.42l12.78-53.7a1.83,1.83,0,0,1,2.78-1.12L265.67,159a1.83,1.83,0,0,1,.8,2l-7.15,30,9.07,38.42a1.84,1.84,0,0,1-1.06,2.1l-53.5,22.95A1.83,1.83,0,0,1,213.1,254.62Zm2-64.83L214.94,250l49.52-21.24-8.81-37.34a2,2,0,0,1,0-.85l7-29.19-35.4-22.57Z"/><path fill="#421a29" d="M238.21,155.6c3.94,15.74,22.73,20.69,22.73,20.69l2.89-12.17-3.73-.43S252.23,165.24,238.21,155.6Z"/><path fill="#a46950" d="M221.28,144.64a39.21,39.21,0,0,1-13.91-17.89,40.15,40.15,0,0,1-2.21-8.12A38.54,38.54,0,0,1,229,76.52c19.27-7.48,41,1.91,49.27,21l0,0s11.2,19,10.15,39.21a29.08,29.08,0,0,1-22.48,27,27.44,27.44,0,0,1-14.29-.8l-8.93-2.83-5-1.86Z"/><path fill="#421a29" d="M260.44,166.17a30.68,30.68,0,0,1-9.32-1.48l-8.93-2.83L237.13,160a1.84,1.84,0,0,1,1.28-3.44l5,1.86,8.85,2.81a25.73,25.73,0,0,0,13.33.75,27.31,27.31,0,0,0,21.05-25.32c.94-18.14-8.46-35.61-9.76-37.92a1.79,1.79,0,0,1-.27-.44A36.45,36.45,0,0,0,207,118.34a38.06,38.06,0,0,0,2.11,7.75,37.45,37.45,0,0,0,13.26,17.06,1.83,1.83,0,1,1-2.12,3,41.52,41.52,0,0,1-16.87-27.23A40.11,40.11,0,0,1,279.8,96.49a.36.36,0,0,1,.07.1c.47.79,11.47,19.72,10.41,40.23a31,31,0,0,1-23.92,28.71A27,27,0,0,1,260.44,166.17Z"/><path fill="#421a29" d="M201.2,127.18l6.14-.49,12.76-1.15s22.17-20.32,17-43.52c0,0,19.7-7.08,36.76,7.79.78.68,1.55,1.4,2.32,2.17l.17-.72c-4.15-8.23-12.17-20.2-22.95-21.18-19.49-1.78-27.92,7.82-27.92,7.82C195.13,87.08,197.37,111,201.2,127.18Z"/><path fill="#fff" d="M253.46,122.1a18.44,18.44,0,0,1-8.83,4.42h-.06a11.36,11.36,0,0,1-2,.12c-6.08-.14-9.53-5.1-9.53-5.1,3.6-2.79,6.74-4,9.41-4.38l.53,0a8.78,8.78,0,0,1,1,0A11.88,11.88,0,0,1,253.46,122.1Z"/><path fill="#fff" d="M277,112.8c-.15.13-.29.24-.44.35a11,11,0,0,1-2.34,1.33,16,16,0,0,1-5.2,1.17,10.74,10.74,0,0,1,4.23-10.35l.54-.4.4-.27a17,17,0,0,1,5.1-2.23C280.65,107.71,279.18,110.9,277,112.8Z"/><path fill="#a46950" d="M262.48,112.56s.61,8.62,3.42,11.11a6.75,6.75,0,0,0,3.47,1.61,3.64,3.64,0,0,1,1.57,6.5l-.1.08Z"/><path fill="#421a29" d="M270.84,133.69a1.83,1.83,0,0,1-1.06-3.33,1.8,1.8,0,0,0,.73-1.93,1.76,1.76,0,0,0-1.43-1.34,8.62,8.62,0,0,1-4.4-2c-3.21-2.85-3.92-10.8-4-12.36a1.83,1.83,0,0,1,3.66-.26c.23,3.27,1.26,8.5,2.81,9.87a5,5,0,0,0,2.54,1.17,5.48,5.48,0,0,1,2.37,9.79l-.13.1A1.87,1.87,0,0,1,270.84,133.69Z"/><path fill="#fff" d="M253,121.47c-1.89-2.21-9.09-9-19.9.08Z"/><path fill="#421a29" d="M233.05,123.39a1.84,1.84,0,0,1-1.18-3.25c9.59-8,17.9-5.19,22.47.13a1.83,1.83,0,0,1-.19,2.59,1.85,1.85,0,0,1-2.59-.19c-2.13-2.49-8.1-7.43-17.34.29A1.8,1.8,0,0,1,233.05,123.39Z"/><path fill="#fff" d="M280.25,101.85s-12,3-11.37,12.84Z"/><path fill="#421a29" d="M268.87,116.53A1.84,1.84,0,0,1,267,114.8c-.54-9,8.11-13.56,12.76-14.73a1.84,1.84,0,0,1,.9,3.56h0c-.43.11-10.49,2.77-10,11a1.83,1.83,0,0,1-1.72,1.94Z"/><path fill="#a46950" d="M251,110.15s-11.46-7.3-21.91,4.56Z"/><path fill="#421a29" d="M229.1,116.54a1.8,1.8,0,0,1-1.21-.46,1.84,1.84,0,0,1-.17-2.59c11.36-12.89,24.15-5,24.28-4.88a1.83,1.83,0,1,1-2,3.09h0c-.42-.26-10.31-6.27-19.55,4.22A1.85,1.85,0,0,1,229.1,116.54Z"/><path fill="#a46950" d="M278.58,96.56s-9.9-3.16-14.07,7.55Z"/><path fill="#421a29" d="M264.51,105.94a1.92,1.92,0,0,1-.66-.12,1.85,1.85,0,0,1-1.05-2.38c3.79-9.74,12.35-9.9,16.34-8.63a1.84,1.84,0,0,1-1.11,3.5c-.86-.27-8.4-2.3-11.81,6.46A1.82,1.82,0,0,1,264.51,105.94Z"/><path fill="#421a29" d="M249.45,120.25a3.5,3.5,0,1,1-4.11-2.49A3.4,3.4,0,0,1,249.45,120.25Z"/><path fill="#421a29" d="M276.92,109.66a3.5,3.5,0,1,1-4.11-2.49A3.39,3.39,0,0,1,276.92,109.66Z"/><path fill="#a46950" d="M231.21,126.06a17.13,17.13,0,0,0-2.59-3c-6.46-5.84-16.15-5.67-21.65.39a15.08,15.08,0,0,0-1.08,1.34c-4.28,6.07-3.18,14.77,2.82,20.2a16.1,16.1,0,0,0,14.1,3.94l3.63-.76Z"/><path fill="#421a29" d="M219.63,151.14a18.21,18.21,0,0,1-12.15-4.75c-6.63-6-8-15.72-3.08-22.62a15.49,15.49,0,0,1,1.21-1.52c6.17-6.79,17-7,24.24-.51a18.61,18.61,0,0,1,2.87,3.28,1.83,1.83,0,1,1-3,2.08,15.24,15.24,0,0,0-2.31-2.64c-5.7-5.15-14.25-5-19.06.26a11.25,11.25,0,0,0-.93,1.16c-3.81,5.39-2.71,13,2.54,17.79a14.28,14.28,0,0,0,12.48,3.51l3.64-.77a1.83,1.83,0,0,1,.75,3.59l-3.63.77A17,17,0,0,1,219.63,151.14Z"/><path fill="#a46950" d="M227.48,135s-5.23-8.23-15.27-6.88Z"/><path fill="#421a29" d="M227.48,136.82a1.84,1.84,0,0,1-1.55-.85c-.2-.31-4.78-7.22-13.48-6.05a1.84,1.84,0,0,1-.49-3.64C223,124.8,228.79,133.62,229,134a1.84,1.84,0,0,1-1.55,2.82Z"/><path fill="#a46950" d="M219.13,139.64s-3.68-6.76,4.19-8.81Z"/><path fill="#421a29" d="M219.13,141.47a1.82,1.82,0,0,1-1.61-.95c-.21-.38-2-3.78-.53-7.08.92-2.14,2.9-3.62,5.86-4.39a1.83,1.83,0,1,1,.93,3.55c-1.81.47-3,1.24-3.42,2.28a5.11,5.11,0,0,0,.39,3.89,1.84,1.84,0,0,1-.76,2.48A1.78,1.78,0,0,1,219.13,141.47Z"/><path fill="#421a29" d="M242.14,79.54s6.74,4.89,2.71,8.69-14.37-6.6-14.37-6.6S235.85,75.72,242.14,79.54Z"/><path fill="#421a29" d="M251,141.44a2,2,0,0,0,.31.66c1.07,1.58,4.49,3.55,7.57,5,.82.39,1.62.72,2.34,1,3.78,1.5,8.16,2.53,12.09-2.79l.11-.17a12.38,12.38,0,0,0,2.27-8.4,1.58,1.58,0,0,0-2.17-1.36,2.21,2.21,0,0,1-.35.16c-3,1.26-6.75,1.68-10.06,2-2.62.39-5.07.67-7,.87C252.83,139,250.56,139.7,251,141.44Z"/><path fill="#421a29" d="M266.27,151.11a15.43,15.43,0,0,1-5.75-1.34c-.91-.36-1.71-.7-2.46-1.05-2.44-1.12-6.78-3.35-8.3-5.59a3.52,3.52,0,0,1-.58-1.28,3.26,3.26,0,0,1,.42-2.54c1-1.51,3.07-2.18,6.14-2.78l.16,0c2.38-.24,4.7-.53,6.92-.85h.1c3.17-.28,6.78-.67,9.49-1.83l.13,0,.16-.07a3.33,3.33,0,0,1,3.07.14,3.52,3.52,0,0,1,1.72,2.7,14.27,14.27,0,0,1-2.57,9.59,1.77,1.77,0,0,1-.16.22C272,150.06,269,151.11,266.27,151.11Zm-13.4-10c.68.89,3,2.5,6.74,4.23.7.33,1.43.64,2.26,1,4.08,1.62,7,1.78,9.93-2.17a.71.71,0,0,1,.1-.14,10.57,10.57,0,0,0,2-6.85l-.06,0c-3.18,1.34-7.09,1.78-10.51,2.08-2.22.32-4.55.61-6.94.85A12.35,12.35,0,0,0,252.87,141.16Z"/><path fill="#fff" d="M253.1,142.81S267,141,268.56,140.53s3.37-2.64,3.86-3.84c-5.42,2.18-12.81,1.93-14.48,2.21a20.39,20.39,0,0,0-3.43.82,4.17,4.17,0,0,0-2.15,1.16C252,141.37,252.5,142.14,253.1,142.81Z"/><path fill="#f4b2c1" d="M259.87,146.73c.71.33,1.41.63,2,.88,3.3,1.3,7.11,2.2,10.54-2.44l.1-.14c-1-1.07-3.37-2.81-7.39-.79A5.8,5.8,0,0,0,259.87,146.73Z"/><path fill="#421a29" d="M266.37,150.5a13.88,13.88,0,0,1-5.13-1.19c-.75-.29-1.47-.61-2.15-.92a1.89,1.89,0,0,1-1-1.17,1.87,1.87,0,0,1,.24-1.51,7.54,7.54,0,0,1,6.44-3.32c5-2.27,8,.2,9.12,1.4a1.84,1.84,0,0,1,.18,2.25l-.18.25C271.48,149.57,268.76,150.5,266.37,150.5Zm-2.91-4.27c2.57.89,4.52.93,6.4-.87a4.79,4.79,0,0,0-3.87.52,1.86,1.86,0,0,1-1.06.18A4.38,4.38,0,0,0,263.46,146.23Z"/><path fill="#ffe26d" d="M195.77,183.62l62.79,7,23.66,6.35L295,241.17s13.43,35.88-6.45,46.71c0,0,3.66,61.2-1.7,67.72l-99.12,3.16S179.56,205.37,195.77,183.62Z"/><path fill="#421a29" d="M187.69,360.6a1.83,1.83,0,0,1-1.83-1.74c-.34-6.29-8-154.31,8.43-176.34a1.86,1.86,0,0,1,1.68-.73l62.79,7a1.31,1.31,0,0,1,.27.06l23.67,6.35a1.84,1.84,0,0,1,1.28,1.27l12.73,44.17c.83,2.26,13.05,36.39-6.3,48.3.72,12.51,3.18,61.35-2.19,67.87a1.83,1.83,0,0,1-1.36.67l-99.11,3.16Zm9-175c-14,22.47-8.06,154.31-7.23,171.31l96.34-3.07c3.13-6.61,2.26-43.31.91-65.81a1.84,1.84,0,0,1,.95-1.72c18.25-9.94,5.74-44.11,5.61-44.46l0-.13-12.46-43.24-22.52-6.06Z"/><rect width="96.5" height="10.16" x="194.9" y="350.23" fill="#421a29"/><path fill="#a46950" d="M220.45,159.08l-5,21.22s27.74,47.27,36.08,80.85c0,0,9.13-41.49,6.24-71.57l3.22-13.29Z"/><path fill="#421a29" d="M251.48,263a1.84,1.84,0,0,1-1.78-1.39c-8.18-33-35.61-79.9-35.88-80.37a1.83,1.83,0,0,1-.21-1.35l5-21.23a1.83,1.83,0,0,1,3.57.85L217.35,180c3.09,5.35,24.42,42.85,33.82,73.23,2.44-13.3,6.83-41.62,4.73-63.49a1.74,1.74,0,0,1,0-.6l3.22-13.3a1.84,1.84,0,1,1,3.57.87l-3.15,13c2.79,30-6.21,71.42-6.3,71.84a1.85,1.85,0,0,1-1.77,1.44Z"/><path fill="#cdd9f0" d="M195.77,183.62s-33.65,1.82-47.74,9.32c-5.35,2.85-17.13,23.2-29.3,42C100.6,263.05,81.6,293.61,81.8,305.1,82,318.24,129.27,414,129.27,414s34.63-10.49,45.23-31l-30.06-69,18.73-33.63S170.8,315.39,174,328c1.49,5.95-38.12,112.87-46.27,145,0,0,22.52,1.41,36.2-10.76s46.27-76.45,48.83-122.4C213.45,326.53,195.77,183.62,195.77,183.62Z"/><path fill="#421a29" d="M130,474.86c-1.42,0-2.3-.05-2.47-.06a1.84,1.84,0,0,1-1.67-2.28c3.29-12.95,11.54-37.63,20.31-63.43a119.38,119.38,0,0,1-16.41,6.62,1.84,1.84,0,0,1-2.18-.94C125.69,410.85,80.2,318.53,80,305.13c-.19-10.94,14.74-36.35,37.22-71.15,2.76-4.26,5.49-8.6,8.13-12.8,10.72-17,17.5-27.55,21.85-29.86,14.28-7.6,47.11-9.46,48.5-9.53a1.83,1.83,0,0,1,1.92,1.6c.72,5.84,17.69,143.23,16.95,156.52-2.51,45-34.7,110.56-49.44,123.67C153.57,473.84,136.41,474.86,130,474.86Zm20.87-68.2c-8.71,25.59-17.11,50.55-20.86,64.52,5.91,0,22.14-1,32.61-10.34,12.65-11.26,45.61-74.44,48.22-121.13.68-12.19-14.72-137.89-16.72-154.15-7,.49-33.48,2.72-45.27,9-3.7,2-12.22,15.5-20.46,28.58-2.65,4.2-5.39,8.55-8.15,12.83-12.88,19.93-36.85,57-36.64,69.09.18,10.26,33,79.1,46.57,106.66A125.61,125.61,0,0,0,147.93,404q1.47-4.31,2.93-8.6c4-11.75,8.22-24.11,11.84-35l-19.95-45.76a1.87,1.87,0,0,1,.08-1.63l18.73-33.63a1.83,1.83,0,0,1,3.4.5c.08.35,7.66,35.19,10.77,47.61.56,2.25-2.34,12.3-9.11,32.72l9.56,21.94a1.86,1.86,0,0,1-.05,1.58C171,393.76,160.57,401.37,150.91,406.66Zm14-41.19c-2.91,8.7-6.42,19-10.55,31.15l-1.61,4.71c7.8-4.69,15.53-10.88,19.73-18.48Zm-18.41-51.42,17.94,41.17c4.65-14.16,7.92-24.9,7.73-26.87-2.41-9.64-7.54-32.87-9.74-42.9Z"/><path fill="#cdd9f0" d="M298.69,346.4a89,89,0,0,1-3.92-24.67c-.28-3.21,1.2-23.92,3.09-33.43l2,.69,48.71-16.8c-8.72-27.64-19.18-55.3-23.2-61.86C317.89,198.14,281,189.85,281,189.85l-9.63-1.77s11.49,54.74,11.48,80.45-.74,56.8-.84,64,22.5,109.59,27,117.13,24.67,5.22,24.67,5.22-9.3-28.53-19.12-59Z"/><path fill="#421a29" d="M326.71,457.08c-6.72,0-16.09-1.05-19.31-6.5-4.75-8-27.3-110.47-27.21-118.08,0-1.56.07-4.21.14-7.69.24-12.62.69-36.11.69-56.28,0-25.22-11.32-79.53-11.43-80.08a1.8,1.8,0,0,1,.48-1.65,1.83,1.83,0,0,1,1.64-.53l9.64,1.78c1.6.36,37.79,8.61,45.61,21.32,4.26,6.95,14.75,34.88,23.39,62.27a1.84,1.84,0,0,1-1.16,2.28l-48.7,16.81a1.89,1.89,0,0,1-1.2,0h0c-1.69,10.1-2.91,28.14-2.68,30.84,0,.14,0,.42,0,.83a85.43,85.43,0,0,0,3.81,23.44l15.84,49.48c9.7,30.1,19,58.7,19.12,59a1.82,1.82,0,0,1-.2,1.56,1.84,1.84,0,0,1-1.33.83A64.61,64.61,0,0,1,326.71,457.08Zm-53-266.7c2.32,11.4,11,55.5,11,78.15,0,20.2-.45,43.72-.69,56.35-.07,3.47-.12,6.12-.14,7.66-.09,7,22.35,108.83,26.7,116.18,2.78,4.71,14.31,4.95,20.64,4.53-2.37-7.26-10.26-31.5-18.42-56.81L296.94,347h0a89.23,89.23,0,0,1-4-24.45c0-.3,0-.51,0-.62-.3-3.49,1.25-24.51,3.12-33.94a1.84,1.84,0,0,1,.88-1.24,1.88,1.88,0,0,1,1.52-.14l1.43.49,46.42-16c-8.32-26.17-18.5-53.27-22.48-59.75-5.82-9.46-33.17-17.39-43.22-19.65Z"/><path fill="#ffe26d" d="M215.4,180.3l1.88-7.92s-14.76,5-21.51,11.24l.45,39.95s22.32-10,38.39-6.6Z"/><path fill="#421a29" d="M196.22,225.4a1.86,1.86,0,0,1-1-.28,1.83,1.83,0,0,1-.84-1.53l-.46-40a1.84,1.84,0,0,1,.59-1.37c7-6.46,21.56-11.42,22.18-11.63a1.83,1.83,0,0,1,2.37,2.16l-1.73,7.26,18.89,36.06a1.83,1.83,0,0,1-2,2.65c-15.29-3.25-37,6.38-37.26,6.47A1.78,1.78,0,0,1,196.22,225.4Zm1.39-41,.42,36.4c5.84-2.31,20.57-7.45,33.27-6.21l-17.53-33.47a1.86,1.86,0,0,1-.16-1.27l1.1-4.6C210.28,177,202.26,180.45,197.61,184.43Z"/><path fill="#ffe26d" d="M257.72,189.58l3.22-13.29A156.24,156.24,0,0,1,275.78,189L284,224.09s-9.84-9-25.51-4.12Z"/><path fill="#421a29" d="M284,225.93a1.83,1.83,0,0,1-1.24-.49c-.37-.33-9.32-8.24-23.72-3.72a1.83,1.83,0,0,1-1.62-.25,1.86,1.86,0,0,1-.77-1.45l-.8-30.39a1.54,1.54,0,0,1,.05-.48l3.22-13.3a1.86,1.86,0,0,1,1.15-1.29,1.83,1.83,0,0,1,1.72.25,157.21,157.21,0,0,1,15,12.85,1.82,1.82,0,0,1,.51.89l8.26,35.12a1.86,1.86,0,0,1-.86,2A1.93,1.93,0,0,1,284,225.93Zm-16.24-9.27A28.44,28.44,0,0,1,281.19,220l-7.07-30.06c-4.74-4.57-9.41-8.38-12.06-10.46l-2.5,10.32.74,27.81A31.83,31.83,0,0,1,267.8,216.66Z"/><path fill="#a46950" d="M127.54,390.37s12.51,29,25.2,38.45,34.84.92,38.6,2.59c3.34,1.48,9.28,9.76,17,9.09a1.65,1.65,0,0,0,1.32-2.73c-3.37-4-10.89-12.52-14.07-13.14-4.16-.81-14.38-3.06-14.38-3.06s10.78-4.43,15.2-2.64c3.83,1.55,15.32,7.14,21.47,4.66a1.65,1.65,0,0,0,0-3.09c-5.26-2.77-17.54-9.09-20.89-9.75a80.94,80.94,0,0,0-11.79-.84s11.3-4.3,15.57-3.2,11.56,6.55,15.74,6.51a11.11,11.11,0,0,0,3-.41,1.65,1.65,0,0,0,.33-3.12c-4.6-2.69-14.12-8.1-17.33-8.73L192,398.9S202.57,396,206.33,397c3.07.76,11.31,2.42,15.08-.35,1.29-1,.61-2.84-1.14-3.11-7.4-1.15-26.48-4-28-3.44-1.87.73-17,7.84-20.12,7.33S159.22,377,159.22,377Z"/><path fill="#421a29" d="M207.44,442.37c-5.66,0-10.2-3.89-13.56-6.79a19.42,19.42,0,0,0-3.28-2.5c-.77-.27-4.14.25-6.85.67-9,1.41-22.69,3.54-32.1-3.46-12.94-9.62-25.28-38-25.8-39.19a1.86,1.86,0,0,1,1-2.42l31.69-13.37a1.83,1.83,0,0,1,2.36.87c4.21,8.5,9.83,18.23,11.7,19.4,1.13,0,5-1.06,16.78-6.26,1.1-.48,1.91-.84,2.26-1,.69-.26,2.12-.82,28.94,3.34a3.91,3.91,0,0,1,3.27,2.85,3.37,3.37,0,0,1-1.32,3.55c-4.4,3.22-13.08,1.53-16.61.65a14.47,14.47,0,0,0-4.63.12l1.62.31c3.24.64,11.53,5.22,17.91,8.95a3.59,3.59,0,0,1,1.85,3.52,3.51,3.51,0,0,1-2.59,2.93,12.57,12.57,0,0,1-3.49.5c-2.89.05-6.58-1.92-10.13-3.79a35.26,35.26,0,0,0-6.08-2.79,12,12,0,0,0-4.44.23c.51.07,1,.15,1.46.24,3.29.65,13.45,5.75,21.4,9.92a3.66,3.66,0,0,1,2,3.39,3.48,3.48,0,0,1-2.23,3c-6.14,2.47-16-1.73-21.25-4l-1.6-.67c-1.54-.62-4.54-.2-7.55.58,2.83.6,5.92,1.26,7.77,1.62,2.78.54,7.86,5.17,15.12,13.76a3.4,3.4,0,0,1,.6,3.53,3.72,3.72,0,0,1-3.16,2.21C208.15,442.36,207.79,442.37,207.44,442.37Zm-17.62-13a5.44,5.44,0,0,1,2.26.38,19.68,19.68,0,0,1,4.19,3.07c3.22,2.76,7.21,6.2,11.77,5.88-6.86-8.08-11.36-12-12.8-12.25-4.13-.81-14.31-3-14.41-3.06a1.84,1.84,0,0,1-1.43-1.64,1.81,1.81,0,0,1,1.13-1.85c1.17-.48,11.61-4.66,16.58-2.65l1.66.7c4,1.71,13.25,5.66,18.08,4.08-10.34-5.42-18.07-9-20.19-9.46a79.1,79.1,0,0,0-11.43-.81,1.84,1.84,0,0,1-.65-3.55c1.21-.46,12-4.47,16.68-3.26a35.93,35.93,0,0,1,6.88,3.09c3,1.59,6.45,3.39,8.38,3.37a9.22,9.22,0,0,0,2.17-.26c-8.3-4.84-14.46-8-16.52-8.36l-10.53-2.07a1.83,1.83,0,0,1-.13-3.57c1.13-.3,11.16-3,15.27-2,4.48,1.11,10.53,1.79,13.26.14h0c-17.89-2.78-25.77-3.62-27.17-3.5l-2,.87c-11.59,5.12-16.73,6.88-19,6.51-3.14-.52-8.93-10.73-13.51-19.83l-28.37,12c2.87,6.28,13.43,28.27,23.86,36,8.17,6.07,20.91,4.09,29.34,2.78A50,50,0,0,1,189.82,429.35Zm29.21-18Zm-26.29-19.53Z"/><path fill="#cdd9f0" d="M149.47,325.09l25,57.85s-6.35,18.43-45.23,31l-25.42-53.35Z"/><path fill="#421a29" d="M129.27,415.79a1.84,1.84,0,0,1-1.66-1L102.19,361.4a1.83,1.83,0,1,1,3.31-1.58l24.73,51.89c32.15-10.78,40.76-25.61,42.27-28.77l-24.71-57.12a1.84,1.84,0,0,1,3.37-1.46l25,57.85a1.82,1.82,0,0,1,.05,1.32c-.28.79-7.1,19.45-46.41,32.17A1.77,1.77,0,0,1,129.27,415.79Z"/><path fill="#421a29" d="M297.86,290.13a1.83,1.83,0,0,1-1.3-3.13c2.95-3,3.6-9.42,2.06-20.31l-3.21-28.11a1.84,1.84,0,0,1,3.65-.41l3.2,28.05c1.73,12.24.78,19.46-3.1,23.37A1.83,1.83,0,0,1,297.86,290.13Z"/><path fill="#421a29" d="M189.73,130.19s-1.27,7.76-9.42,8.58-7.43,6.72-3.44,7.57,6.34,2.68,12.86.5S189.73,130.19,189.73,130.19Z"/><path fill="#421a29" d="M294.21,140.46a68,68,0,0,0,12.21,17.08c2.7,2.78,5.32,6.14,5.93,9.13,1.36,6.66.14,12.64-4.21,12s-5.84-12-5.84-12l-9.11-20.11.62-6.92Z"/><path fill="#a46950" d="M348.39,158.38s-4.39-4-9.05-2.22c-3.07,1.17-7.49,8.9-10.17,14.07a4.83,4.83,0,0,0,3.79,7.12c2.46.16,5.31-.7,7.82-4.15C346.78,165,348.39,158.38,348.39,158.38Z"/><path fill="#421a29" d="M333.5,179.2c-.23,0-.45,0-.66,0a6.45,6.45,0,0,1-5.19-3.29,6.83,6.83,0,0,1-.11-6.51c6.9-13.32,10.1-14.53,11.15-14.93,5.65-2.14,10.72,2.37,10.93,2.57a1.82,1.82,0,0,1,.55,1.79c-.07.28-1.76,7-7.91,15.47C339.36,178.27,336,179.2,333.5,179.2Zm8.32-21.65a5.17,5.17,0,0,0-1.83.33c-1.42.54-4.58,4.28-9.19,13.19a3.14,3.14,0,0,0,.05,3,2.73,2.73,0,0,0,2.23,1.43c2.4.16,4.44-1,6.22-3.4a49.42,49.42,0,0,0,7-13.05A8.46,8.46,0,0,0,341.82,157.55Z"/><path fill="#a46950" d="M375.64,213s6.32-46.44,2.5-51.45-23.85-9.31-27.18-9.84-9.31,5.87-5.25,8.61c0,0-6.66,5.35-1.49,8.65,0,0-7.28,4-3.14,10.29,0,0-4.12,6.55-2.95,12.07s5.64,10.4,8.86,6.24l3.22-4.16s-11.49,12.9,1.37,25.64l1.78,18.18,29.08-3.08Z"/><path fill="#421a29" d="M353.36,239.08a1.83,1.83,0,0,1-1.16-.41,1.85,1.85,0,0,1-.67-1.24l-1.71-17.53c-6.6-6.83-6.87-13.72-5.48-18.92a4.66,4.66,0,0,1-1.13-.12c-3.57-.82-6.07-5.3-6.88-9.13-1-4.88,1.45-10.26,2.63-12.44a7.76,7.76,0,0,1-.78-5.57,9.83,9.83,0,0,1,3.18-4.9,5,5,0,0,1-.93-2.64c-.14-2.38,1.45-4.58,2.7-5.93a5.08,5.08,0,0,1-.18-4.52c1.22-3.1,5.1-6.31,8.29-5.81.23,0,23.65,4.36,28.36,10.54,3.92,5.14-.52,40.86-2.08,52.4l6.67,20.75a1.84,1.84,0,0,1-1.56,2.39l-29.08,3.07Zm-2.68-43.26c-2.26,3.24-7.26,12.59,2.19,22a1.85,1.85,0,0,1,.54,1.12L355,235.23l25-2.65-6.1-19a1.71,1.71,0,0,1-.07-.81c3-22.43,4.94-47.3,2.85-50.09-3.06-4-20.79-8.33-26-9.15-1-.15-3.52,1.53-4.31,3.53-.46,1.18.06,1.54.37,1.75a1.82,1.82,0,0,1,.81,1.44,1.87,1.87,0,0,1-.68,1.51c-.94.76-2.85,2.79-2.77,4.22,0,.19,0,.77,1.12,1.46a1.83,1.83,0,0,1-.1,3.15s-2.79,1.6-3.37,4a4.59,4.59,0,0,0,.87,3.66,1.82,1.82,0,0,1,0,2c0,.06-3.7,6-2.71,10.72.72,3.38,2.71,6,4.11,6.31.23.06.75.17,1.51-.81l2.54-3.28c.45-.62.74-1,.76-1a1.84,1.84,0,0,1,2.82,2.35Z"/><path fill="#a46950" d="M341.08,179.28a37,37,0,0,1,18.36,2.16Z"/><path fill="#421a29" d="M359.44,183.27a1.81,1.81,0,0,1-.64-.12,35.51,35.51,0,0,0-17.37-2.07,1.83,1.83,0,0,1-.7-3.6,38.5,38.5,0,0,1,19.35,2.24,1.83,1.83,0,0,1-.64,3.55Z"/><path fill="#a46950" d="M343.53,169.26a37,37,0,0,1,18.36,2.16Z"/><path fill="#421a29" d="M361.89,173.25a1.87,1.87,0,0,1-.65-.12,35.48,35.48,0,0,0-17.36-2.07,1.83,1.83,0,0,1-.7-3.6,38.63,38.63,0,0,1,19.35,2.24,1.83,1.83,0,0,1-.64,3.55Z"/><path fill="#a46950" d="M347.06,161a37,37,0,0,1,18.36,2.16Z"/><path fill="#421a29" d="M365.42,165a1.77,1.77,0,0,1-.64-.12,35.52,35.52,0,0,0-17.37-2.07,1.83,1.83,0,0,1-.7-3.6,38.63,38.63,0,0,1,19.35,2.24,1.83,1.83,0,0,1-.64,3.55Z"/><path fill="#421a29" d="M233.05,289.74a123.25,123.25,0,0,1-116-82.05,1.85,1.85,0,0,1,1.12-2.34,1.82,1.82,0,0,1,2.34,1.12,119.41,119.41,0,0,0,229-13.21,1.84,1.84,0,0,1,3.58.81,123.07,123.07,0,0,1-120,95.67Z"/><path fill="#cdd9f0" d="M332.9,275.75l-.29-58.48c21.64-10.19,54.85-3.8,54.85-3.8s.7,64.27-.61,108.17c-.94,31.31-53.57,38.63-68.47,7.59-5.85-12.19-20.52-40.93-20.52-40.93l2-3.66s1.4-2.28,1.4-7.33Z"/><path fill="#421a29" d="M352.58,351c-13.71,0-28.69-6-35.85-20.93-5.78-12-20.36-40.61-20.51-40.9a1.85,1.85,0,0,1,0-1.71l2-3.66c0-.07,1.17-2.1,1.17-6.45a1.84,1.84,0,0,1,3.67,0c0,5.41-1.49,8-1.66,8.29l-1.49,2.72c2.49,4.89,14.88,29.23,20.11,40.12,8,16.64,26.91,21,41.12,18C372.4,344,384.58,336.25,385,321.59c1.18-39.62.72-96.55.62-106.57-6.48-1-32.91-4.57-51.19,3.43l.28,57.29a1.84,1.84,0,0,1-3.67,0l-.28-58.48a1.84,1.84,0,0,1,1.05-1.67c21.92-10.33,54.6-4.21,56-3.94a1.83,1.83,0,0,1,1.48,1.78c0,.64.69,64.81-.61,108.25-.41,13.83-10.92,24.94-26.76,28.3A45.86,45.86,0,0,1,352.58,351Z"/><path fill="#421a29" stroke="#421a29" stroke-linecap="round" stroke-linejoin="round" stroke-width="1.26" d="M414,73.43a49.22,49.22,0,0,1,9.08-.76c5.06,0,8.32.92,10.6,3a9.12,9.12,0,0,1,2.88,7A9.61,9.61,0,0,1,429.7,92v.17c2.83,1,4.51,3.59,5.38,7.39,1.2,5.11,2.07,8.65,2.83,10.06H433c-.6-1-1.42-4.18-2.45-8.75-1.09-5.06-3.05-7-7.34-7.13h-4.46v15.88H414Zm4.73,16.69h4.84c5.05,0,8.26-2.77,8.26-7,0-4.73-3.42-6.79-8.43-6.85a19.2,19.2,0,0,0-4.67.44Z"/><path fill="#421a29" stroke="#421a29" stroke-linecap="round" stroke-linejoin="round" stroke-width="1.26" d="M446,97.3c.11,6.47,4.25,9.14,9,9.14a17.35,17.35,0,0,0,7.29-1.36l.81,3.43a21.28,21.28,0,0,1-8.75,1.63c-8.1,0-12.94-5.33-12.94-13.27s4.67-14.2,12.34-14.2c8.59,0,10.88,7.56,10.88,12.4a16.74,16.74,0,0,1-.17,2.23Zm14-3.42c.06-3-1.25-7.78-6.63-7.78-4.84,0-7,4.46-7.34,7.78Z"/><path fill="#421a29" stroke="#421a29" stroke-linecap="round" stroke-linejoin="round" stroke-width="1.26" d="M469.94,104.7a12.62,12.62,0,0,0,6.31,1.9c3.48,0,5.11-1.74,5.11-3.91s-1.36-3.54-4.89-4.84c-4.73-1.69-7-4.3-7-7.45,0-4.25,3.42-7.73,9.08-7.73a13.15,13.15,0,0,1,6.47,1.64l-1.19,3.48a10.21,10.21,0,0,0-5.39-1.53c-2.83,0-4.4,1.63-4.4,3.59,0,2.18,1.57,3.16,5,4.46,4.57,1.74,6.91,4,6.91,7.94,0,4.62-3.59,7.89-9.85,7.89a15,15,0,0,1-7.39-1.8Z"/><path fill="#421a29" stroke="#421a29" stroke-linecap="round" stroke-linejoin="round" stroke-width="1.26" d="M514.16,102.41c0,2.72.05,5.12.21,7.18h-4.24l-.27-4.29h-.11a9.9,9.9,0,0,1-8.7,4.89c-4.13,0-9.08-2.28-9.08-11.53V83.27h4.78V97.85c0,5,1.53,8.37,5.88,8.37a6.92,6.92,0,0,0,6.31-4.35,7.07,7.07,0,0,0,.43-2.45V83.27h4.79Z"/><path fill="#421a29" stroke="#421a29" stroke-linecap="round" stroke-linejoin="round" stroke-width="1.26" d="M522.1,90.4c0-2.72-.06-5-.22-7.13h4.19l.22,4.24h.16a9.07,9.07,0,0,1,8.26-4.84A7.78,7.78,0,0,1,542.16,88h.11a10.92,10.92,0,0,1,2.94-3.43A9,9,0,0,1,551,82.67c3.48,0,8.65,2.29,8.65,11.42v15.5H555V94.69c0-5.06-1.85-8.1-5.71-8.1a6.2,6.2,0,0,0-5.66,4.35,8.09,8.09,0,0,0-.38,2.39v16.26h-4.67V93.82c0-4.19-1.85-7.23-5.5-7.23-3,0-5.16,2.39-5.92,4.78a6.46,6.46,0,0,0-.39,2.34v15.88H522.1Z"/><path fill="#421a29" stroke="#421a29" stroke-linecap="round" stroke-linejoin="round" stroke-width="1.26" d="M570.12,97.3c.11,6.47,4.24,9.14,9,9.14a17.29,17.29,0,0,0,7.28-1.36l.82,3.43a21.38,21.38,0,0,1-8.76,1.63c-8.1,0-12.94-5.33-12.94-13.27s4.68-14.2,12.35-14.2c8.59,0,10.87,7.56,10.87,12.4a19.11,19.11,0,0,1-.16,2.23Zm14-3.42c.05-3-1.25-7.78-6.63-7.78-4.84,0-7,4.46-7.35,7.78Z"/><circle cx="584.6" cy="657.22" r="148.07" fill="#cdd9f0" transform="rotate(-45 584.6 657.22)"/><path fill="#421a29" d="M584.6,807.19c-82.69,0-150-67.28-150-150s67.28-150,150-150,150,67.28,150,150S667.29,807.19,584.6,807.19Zm0-296.14c-80.6,0-146.17,65.57-146.17,146.17S504,803.38,584.6,803.38s146.16-65.57,146.16-146.16S665.19,511.05,584.6,511.05Z"/><polygon fill="#fff" points="584.6 524.04 456.78 616.9 505.61 767.16 663.59 767.16 712.42 616.9 584.6 524.04"/><path fill="#421a29" d="M663.59,769.06h-158a1.89,1.89,0,0,1-1.8-1.31L455,617.49a1.92,1.92,0,0,1,.7-2.13L583.48,522.5a1.92,1.92,0,0,1,2.24,0l127.81,92.86a1.9,1.9,0,0,1,.69,2.13L665.4,767.75A1.89,1.89,0,0,1,663.59,769.06ZM507,765.26H662.21l48-147.63L584.6,526.39,459,617.63Z"/><polygon fill="#d2c8e4" points="542.58 710.26 624.1 706.38 663.59 627.86 584.6 604.49 495.96 625.7 542.58 710.26"/><path fill="#421a29" d="M542.58,712.62a2.36,2.36,0,0,1-2.07-1.22l-46.62-84.56a2.36,2.36,0,0,1,1.52-3.44l88.64-21.21a2.52,2.52,0,0,1,1.22,0l79,23.38a2.35,2.35,0,0,1,1.5,1.32,2.39,2.39,0,0,1,0,2l-39.5,78.51a2.38,2.38,0,0,1-2,1.3l-81.52,3.88Zm-43.05-85.35,44.41,80.56,78.67-3.75,37.6-74.75-75.68-22.39Z"/><polygon fill="#ffe26d" points="542.58 710.26 584.6 645.6 495.96 625.7 542.58 710.26"/><path fill="#421a29" d="M542.58,712.16h-.07a1.91,1.91,0,0,1-1.6-1L494.3,626.62a1.9,1.9,0,0,1,2.08-2.78L585,643.74a1.9,1.9,0,0,1,1.34,1.14,1.88,1.88,0,0,1-.17,1.75l-42,64.67A1.89,1.89,0,0,1,542.58,712.16Zm-42.91-83.68,43,78.08,38.81-59.7Z"/><polygon fill="#cdd9f0" points="584.6 604.49 584.6 645.6 663.59 627.86 584.6 604.49"/><path fill="#421a29" d="M584.6,647.5a1.86,1.86,0,0,1-1.19-.42,1.89,1.89,0,0,1-.71-1.48V604.49a1.9,1.9,0,0,1,2.44-1.82l79,23.37a1.9,1.9,0,0,1-.12,3.68l-79,17.73A2,2,0,0,1,584.6,647.5ZM586.5,607v36.18L656,627.61Z"/><polygon fill="#d8e292" points="584.6 645.6 624.1 706.38 663.59 627.86 584.6 645.6"/><path fill="#421a29" d="M624.1,708.28a1.91,1.91,0,0,1-1.6-.86L583,646.63a1.88,1.88,0,0,1-.17-1.75,1.9,1.9,0,0,1,1.34-1.14l79-17.73a1.9,1.9,0,0,1,2.11,2.71L625.8,707.23a1.92,1.92,0,0,1-1.6,1Zm-36.42-61.42,36.21,55.71,36.2-72Z"/><polygon fill="#f4b2c1" points="542.58 710.26 584.6 645.6 624.1 706.38 542.58 710.26"/><path fill="#421a29" d="M542.58,712.62a2.36,2.36,0,0,1-2-3.65l42-64.66a2.37,2.37,0,0,1,4,0l39.5,60.78a2.36,2.36,0,0,1-1.87,3.65l-81.52,3.88Zm42-62.68-37.53,57.74,72.8-3.47Z"/><path fill="#421a29" d="M501.51,625.7a5.55,5.55,0,1,1-5.55-5.55A5.55,5.55,0,0,1,501.51,625.7Z"/><path fill="#421a29" d="M590.15,604.49a5.55,5.55,0,1,1-5.55-5.55A5.54,5.54,0,0,1,590.15,604.49Z"/><path fill="#421a29" d="M667.16,628a5.56,5.56,0,1,1-5.55-5.55A5.55,5.55,0,0,1,667.16,628Z"/><path fill="#421a29" d="M629,706.59a5.55,5.55,0,1,1-5.55-5.55A5.54,5.54,0,0,1,629,706.59Z"/><circle cx="542.19" cy="708.6" r="5.55" fill="#421a29"/><path fill="#421a29" d="M505.6,769.06a1.88,1.88,0,0,1-1-.31,1.9,1.9,0,0,1-.56-2.63L582.7,645V524a1.9,1.9,0,1,1,3.8,0V645.6a1.86,1.86,0,0,1-.31,1l-79,121.57A1.91,1.91,0,0,1,505.6,769.06Z"/><path fill="#421a29" d="M584.6,647.5a2,2,0,0,1-.42,0L456.37,618.76a1.9,1.9,0,0,1,.83-3.71l127.4,28.6L712,615.05a1.9,1.9,0,0,1,.83,3.71L585,647.45A2,2,0,0,1,584.6,647.5Z"/><path fill="#421a29" d="M663.6,769.06a1.89,1.89,0,0,1-1.6-.86L583,646.63a1.9,1.9,0,1,1,3.18-2.07l79,121.56a1.9,1.9,0,0,1-.56,2.63A1.88,1.88,0,0,1,663.6,769.06Z"/></svg>